# xmcd
# 
# Track frame offsets:
#     150
#     18834
#     44727
#     85096
#     103867
#     135925
#     162161
#     173667
#     196272
#     217433
#     228547
#     253841
#     268035
#     292244
#     304914
# 
# Disc length: 4337
# 
# Revision: 2
# Processed by: cddbd v1.5.2PL0 Copyright (c) Steve Scherf et al.
# Submitted via: fre:ac v1.0.17
# 
DISCID=df10ef0f
DTITLE=Various Artist - Township Jazz - A Musical History
DYEAR=2007
DGENRE=Jazz
TTITLE0=Chris McGregor's - Andromeda
TTITLE1=Bheki Mseleku - Nants Inkululeko
TTITLE2=Hugh Masekela - Nomali
TTITLE3=Glen Mafoko - Kwenzenjani
TTITLE4=Winston Mankunku Ngozi - Inhlupeko
TTITLE5=Amabutha - Mike Makakalemele
TTITLE6=Vuka Vuka - The Manhattan Brothers
TTITLE7=Sipho Mabuse - Chant Of The Marching
TTITLE8=Louis Moholo - Ntyilo Ntyilo
TTITLE9=Zim Ngqawana - You Think You Know Me
TTITLE10=Bayete - Hypocrite
TTITLE11=The Manhattan Brothers - Tula Ndivile
TTITLE12=Allen Kwela - Kwa Mashu
TTITLE13=Zacks Nkosi - TenTen Special
TTITLE14=Chris Mc Gregor - Ismite is Might
EXTD=
EXTT0=
EXTT1=
EXTT2=
EXTT3=
EXTT4=
EXTT5=
EXTT6=
EXTT7=
EXTT8=
EXTT9=
EXTT10=
EXTT11=
EXTT12=
EXTT13=
EXTT14=
PLAYORDER=
